<mxfile host="app.diagrams.net" modified="2023-04-28T16:15:41.431Z" agent="Mozilla/5.0 (Windows NT 10.0; Win64; x64; rv:109.0) Gecko/20100101 Firefox/112.0" etag="HrD32FUcLRcJmBM6EHQ1" version="21.2.3" type="device">
  <diagram name="Page-1" id="1rfseUxClpkkoTdwEQ6H">
    <mxGraphModel dx="1434" dy="731" grid="1" gridSize="10" guides="1" tooltips="1" connect="1" arrows="1" fold="1" page="1" pageScale="1" pageWidth="1200" pageHeight="1600" math="0" shadow="0">
      <root>
        <mxCell id="0" />
        <mxCell id="1" parent="0" />
        <mxCell id="x7yo1bF5Ih4Q695Gc91e-102" value="" style="edgeStyle=orthogonalEdgeStyle;rounded=0;orthogonalLoop=1;jettySize=auto;html=1;" parent="1" source="x7yo1bF5Ih4Q695Gc91e-1" target="x7yo1bF5Ih4Q695Gc91e-85" edge="1">
          <mxGeometry relative="1" as="geometry" />
        </mxCell>
        <mxCell id="x7yo1bF5Ih4Q695Gc91e-1" value="&lt;div&gt;Start&lt;/div&gt;" style="strokeWidth=2;html=1;shape=mxgraph.flowchart.terminator;whiteSpace=wrap;" parent="1" vertex="1">
          <mxGeometry x="550" y="40" width="100" height="60" as="geometry" />
        </mxCell>
        <mxCell id="x7yo1bF5Ih4Q695Gc91e-21" value="&lt;div&gt;End&lt;/div&gt;" style="strokeWidth=2;html=1;shape=mxgraph.flowchart.terminator;whiteSpace=wrap;" parent="1" vertex="1">
          <mxGeometry x="550" y="820" width="100" height="60" as="geometry" />
        </mxCell>
        <mxCell id="x7yo1bF5Ih4Q695Gc91e-103" value="" style="edgeStyle=orthogonalEdgeStyle;rounded=0;orthogonalLoop=1;jettySize=auto;html=1;" parent="1" source="x7yo1bF5Ih4Q695Gc91e-85" target="x7yo1bF5Ih4Q695Gc91e-86" edge="1">
          <mxGeometry relative="1" as="geometry" />
        </mxCell>
        <mxCell id="x7yo1bF5Ih4Q695Gc91e-85" value="row = 1" style="rounded=1;whiteSpace=wrap;html=1;absoluteArcSize=1;arcSize=14;strokeWidth=2;" parent="1" vertex="1">
          <mxGeometry x="550" y="140" width="100" height="60" as="geometry" />
        </mxCell>
        <mxCell id="x7yo1bF5Ih4Q695Gc91e-98" value="" style="edgeStyle=orthogonalEdgeStyle;rounded=0;orthogonalLoop=1;jettySize=auto;html=1;" parent="1" source="x7yo1bF5Ih4Q695Gc91e-86" target="x7yo1bF5Ih4Q695Gc91e-87" edge="1">
          <mxGeometry relative="1" as="geometry" />
        </mxCell>
        <mxCell id="x7yo1bF5Ih4Q695Gc91e-101" style="edgeStyle=orthogonalEdgeStyle;rounded=0;orthogonalLoop=1;jettySize=auto;html=1;exitX=0;exitY=0.5;exitDx=0;exitDy=0;exitPerimeter=0;entryX=0;entryY=0.5;entryDx=0;entryDy=0;entryPerimeter=0;" parent="1" source="x7yo1bF5Ih4Q695Gc91e-86" target="x7yo1bF5Ih4Q695Gc91e-21" edge="1">
          <mxGeometry relative="1" as="geometry">
            <Array as="points">
              <mxPoint x="490" y="290" />
              <mxPoint x="490" y="850" />
            </Array>
          </mxGeometry>
        </mxCell>
        <mxCell id="x7yo1bF5Ih4Q695Gc91e-86" value="row &amp;lt;= 3" style="strokeWidth=2;html=1;shape=mxgraph.flowchart.decision;whiteSpace=wrap;" parent="1" vertex="1">
          <mxGeometry x="550" y="240" width="100" height="100" as="geometry" />
        </mxCell>
        <mxCell id="x7yo1bF5Ih4Q695Gc91e-99" value="" style="edgeStyle=orthogonalEdgeStyle;rounded=0;orthogonalLoop=1;jettySize=auto;html=1;" parent="1" source="x7yo1bF5Ih4Q695Gc91e-87" target="x7yo1bF5Ih4Q695Gc91e-88" edge="1">
          <mxGeometry relative="1" as="geometry" />
        </mxCell>
        <mxCell id="x7yo1bF5Ih4Q695Gc91e-87" value="col = 1" style="rounded=1;whiteSpace=wrap;html=1;absoluteArcSize=1;arcSize=14;strokeWidth=2;" parent="1" vertex="1">
          <mxGeometry x="550" y="380" width="100" height="60" as="geometry" />
        </mxCell>
        <mxCell id="x7yo1bF5Ih4Q695Gc91e-93" value="" style="edgeStyle=orthogonalEdgeStyle;rounded=0;orthogonalLoop=1;jettySize=auto;html=1;" parent="1" source="x7yo1bF5Ih4Q695Gc91e-88" target="x7yo1bF5Ih4Q695Gc91e-89" edge="1">
          <mxGeometry relative="1" as="geometry" />
        </mxCell>
        <mxCell id="x7yo1bF5Ih4Q695Gc91e-100" style="edgeStyle=orthogonalEdgeStyle;rounded=0;orthogonalLoop=1;jettySize=auto;html=1;exitX=0;exitY=0.5;exitDx=0;exitDy=0;exitPerimeter=0;entryX=0;entryY=0.5;entryDx=0;entryDy=0;" parent="1" source="x7yo1bF5Ih4Q695Gc91e-88" target="x7yo1bF5Ih4Q695Gc91e-94" edge="1">
          <mxGeometry relative="1" as="geometry">
            <Array as="points">
              <mxPoint x="520" y="530" />
              <mxPoint x="520" y="750" />
            </Array>
          </mxGeometry>
        </mxCell>
        <mxCell id="x7yo1bF5Ih4Q695Gc91e-88" value="col &amp;lt;= 5" style="strokeWidth=2;html=1;shape=mxgraph.flowchart.decision;whiteSpace=wrap;" parent="1" vertex="1">
          <mxGeometry x="550" y="480" width="100" height="100" as="geometry" />
        </mxCell>
        <mxCell id="x7yo1bF5Ih4Q695Gc91e-91" style="edgeStyle=orthogonalEdgeStyle;rounded=0;orthogonalLoop=1;jettySize=auto;html=1;exitX=1;exitY=0.5;exitDx=0;exitDy=0;entryX=0.5;entryY=1;entryDx=0;entryDy=0;" parent="1" source="x7yo1bF5Ih4Q695Gc91e-89" target="x7yo1bF5Ih4Q695Gc91e-90" edge="1">
          <mxGeometry relative="1" as="geometry" />
        </mxCell>
        <mxCell id="x7yo1bF5Ih4Q695Gc91e-89" value="&lt;div&gt;print&lt;/div&gt;&lt;div&gt;row * col&lt;br&gt;&lt;/div&gt;" style="shape=parallelogram;html=1;strokeWidth=2;perimeter=parallelogramPerimeter;whiteSpace=wrap;rounded=1;arcSize=12;size=0.23;" parent="1" vertex="1">
          <mxGeometry x="550" y="620" width="100" height="60" as="geometry" />
        </mxCell>
        <mxCell id="x7yo1bF5Ih4Q695Gc91e-92" value="" style="edgeStyle=orthogonalEdgeStyle;rounded=0;orthogonalLoop=1;jettySize=auto;html=1;" parent="1" source="x7yo1bF5Ih4Q695Gc91e-90" target="x7yo1bF5Ih4Q695Gc91e-88" edge="1">
          <mxGeometry relative="1" as="geometry" />
        </mxCell>
        <mxCell id="x7yo1bF5Ih4Q695Gc91e-90" value="col++" style="rounded=1;whiteSpace=wrap;html=1;absoluteArcSize=1;arcSize=14;strokeWidth=2;" parent="1" vertex="1">
          <mxGeometry x="690" y="500" width="100" height="60" as="geometry" />
        </mxCell>
        <mxCell id="x7yo1bF5Ih4Q695Gc91e-96" style="edgeStyle=orthogonalEdgeStyle;rounded=0;orthogonalLoop=1;jettySize=auto;html=1;exitX=1;exitY=0.5;exitDx=0;exitDy=0;entryX=0.5;entryY=1;entryDx=0;entryDy=0;" parent="1" source="x7yo1bF5Ih4Q695Gc91e-94" target="x7yo1bF5Ih4Q695Gc91e-95" edge="1">
          <mxGeometry relative="1" as="geometry" />
        </mxCell>
        <mxCell id="x7yo1bF5Ih4Q695Gc91e-94" value="&lt;div&gt;print&lt;/div&gt;&lt;div&gt;&quot;\n&quot;&lt;br&gt;&lt;/div&gt;" style="shape=parallelogram;html=1;strokeWidth=2;perimeter=parallelogramPerimeter;whiteSpace=wrap;rounded=1;arcSize=12;size=0.23;" parent="1" vertex="1">
          <mxGeometry x="550" y="720" width="100" height="60" as="geometry" />
        </mxCell>
        <mxCell id="x7yo1bF5Ih4Q695Gc91e-97" style="edgeStyle=orthogonalEdgeStyle;rounded=0;orthogonalLoop=1;jettySize=auto;html=1;exitX=0;exitY=0.5;exitDx=0;exitDy=0;entryX=1;entryY=0.5;entryDx=0;entryDy=0;entryPerimeter=0;" parent="1" source="x7yo1bF5Ih4Q695Gc91e-95" target="x7yo1bF5Ih4Q695Gc91e-86" edge="1">
          <mxGeometry relative="1" as="geometry" />
        </mxCell>
        <mxCell id="x7yo1bF5Ih4Q695Gc91e-95" value="row++" style="rounded=1;whiteSpace=wrap;html=1;absoluteArcSize=1;arcSize=14;strokeWidth=2;" parent="1" vertex="1">
          <mxGeometry x="760" y="260" width="100" height="60" as="geometry" />
        </mxCell>
        <mxCell id="0bMdmpgsaER31GpD7Cub-1" value="True" style="text;html=1;strokeColor=none;fillColor=none;align=center;verticalAlign=middle;whiteSpace=wrap;rounded=0;" vertex="1" parent="1">
          <mxGeometry x="600" y="340" width="60" height="30" as="geometry" />
        </mxCell>
        <mxCell id="0bMdmpgsaER31GpD7Cub-2" value="True" style="text;html=1;strokeColor=none;fillColor=none;align=center;verticalAlign=middle;whiteSpace=wrap;rounded=0;" vertex="1" parent="1">
          <mxGeometry x="600" y="580" width="60" height="30" as="geometry" />
        </mxCell>
        <mxCell id="0bMdmpgsaER31GpD7Cub-3" value="False" style="text;html=1;strokeColor=none;fillColor=none;align=center;verticalAlign=middle;whiteSpace=wrap;rounded=0;" vertex="1" parent="1">
          <mxGeometry x="490" y="500" width="60" height="30" as="geometry" />
        </mxCell>
        <mxCell id="0bMdmpgsaER31GpD7Cub-4" value="False" style="text;html=1;strokeColor=none;fillColor=none;align=center;verticalAlign=middle;whiteSpace=wrap;rounded=0;" vertex="1" parent="1">
          <mxGeometry x="490" y="260" width="60" height="30" as="geometry" />
        </mxCell>
      </root>
    </mxGraphModel>
  </diagram>
</mxfile>
